<?xml version="1.0" standalone="no"?>
<!DOCTYPE svg PUBLIC "-//W3C//DTD SVG 20010904//EN"
 "http://www.w3.org/TR/2001/REC-SVG-20010904/DTD/svg10.dtd">
<svg version="1.0" xmlns="http://www.w3.org/2000/svg"
 width="512.000000pt" height="512.000000pt" viewBox="0 0 512.000000 512.000000"
 preserveAspectRatio="xMidYMid meet">
<metadata>
Created by potrace 1.11, written by Peter Selinger 2001-2013
</metadata>
<g transform="translate(0.000000,512.000000) scale(0.100000,-0.100000)"
fill="#000000" stroke="none">
<path d="M2290 4875 c-545 -68 -1022 -304 -1406 -697 -192 -197 -296 -341
-419 -583 -168 -329 -248 -673 -248 -1060 1 -953 596 -1815 1494 -2165 543
-211 1154 -212 1695 -1 1158 451 1766 1720 1387 2895 -187 580 -567 1045
-1098 1344 -111 62 -273 134 -286 127 -5 -4 -9 -1 -9 6 0 7 -3 10 -6 7 -5 -5
-115 28 -164 49 -8 3 -23 8 -34 10 -10 2 -57 13 -103 24 -47 12 -95 22 -106
24 -12 1 -50 6 -84 10 -35 4 -63 11 -63 14 0 13 -442 9 -550 -4z m-548 -1929
l-389 -388 389 -386 389 -387 -118 -117 -118 -118 -505 505 -505 505 505 505
505 505 118 -118 117 -117 -388 -389z m1993 114 l500 -500 -502 -503 -503
-502 -118 118 -117 118 390 384 390 384 -390 385 -390 384 115 116 c63 64 117
116 120 116 3 0 230 -225 505 -500z"/>
</g>
</svg>
